<svg width="20" height="20" viewBox="0 0 20 20" fill="none" xmlns="http://www.w3.org/2000/svg">
<path d="M10.0761 0C12.591 0 12.9048 0.00999994 13.8915 0.0599999C14.8772 0.11 15.5483 0.277 16.1388 0.525C16.7497 0.779 17.2644 1.123 17.779 1.678C18.2497 2.1779 18.6139 2.78259 18.8462 3.45C19.0749 4.087 19.2304 4.813 19.2766 5.878C19.3201 6.944 19.3322 7.283 19.3322 10C19.3322 12.717 19.3229 13.056 19.2766 14.122C19.2304 15.187 19.0749 15.912 18.8462 16.55C18.6145 17.2178 18.2503 17.8226 17.779 18.322C17.3162 18.8303 16.7565 19.2238 16.1388 19.475C15.5492 19.722 14.8772 19.89 13.8915 19.94C12.9048 19.987 12.591 20 10.0761 20C7.56126 20 7.24748 19.99 6.26079 19.94C5.27502 19.89 4.60395 19.722 4.01342 19.475C3.39542 19.2245 2.83561 18.8309 2.37325 18.322C1.90249 17.8222 1.53829 17.2175 1.30603 16.55C1.07648 15.913 0.9219 15.187 0.87562 14.122C0.832116 13.056 0.820084 12.717 0.820084 10C0.820084 7.283 0.82934 6.944 0.87562 5.878C0.9219 4.812 1.07648 4.088 1.30603 3.45C1.53765 2.78218 1.90193 2.17732 2.37325 1.678C2.83575 1.16923 3.39551 0.775729 4.01342 0.525C4.60395 0.277 5.27409 0.11 6.26079 0.0599999C7.24748 0.0129999 7.56126 0 10.0761 0ZM10.0761 5C8.8487 5 7.67154 5.52678 6.80362 6.46447C5.9357 7.40215 5.44811 8.67392 5.44811 10C5.44811 11.3261 5.9357 12.5979 6.80362 13.5355C7.67154 14.4732 8.8487 15 10.0761 15C11.3036 15 12.4807 14.4732 13.3486 13.5355C14.2166 12.5979 14.7042 11.3261 14.7042 10C14.7042 8.67392 14.2166 7.40215 13.3486 6.46447C12.4807 5.52678 11.3036 5 10.0761 5V5ZM16.0926 4.75C16.0926 4.41848 15.9707 4.10054 15.7537 3.86612C15.5367 3.6317 15.2424 3.5 14.9356 3.5C14.6287 3.5 14.3344 3.6317 14.1174 3.86612C13.9004 4.10054 13.7785 4.41848 13.7785 4.75C13.7785 5.08152 13.9004 5.39946 14.1174 5.63388C14.3344 5.8683 14.6287 6 14.9356 6C15.2424 6 15.5367 5.8683 15.7537 5.63388C15.9707 5.39946 16.0926 5.08152 16.0926 4.75ZM10.0761 7C10.8126 7 11.5189 7.31607 12.0396 7.87868C12.5604 8.44129 12.8529 9.20435 12.8529 10C12.8529 10.7956 12.5604 11.5587 12.0396 12.1213C11.5189 12.6839 10.8126 13 10.0761 13C9.33967 13 8.63338 12.6839 8.11262 12.1213C7.59187 11.5587 7.29931 10.7956 7.29931 10C7.29931 9.20435 7.59187 8.44129 8.11262 7.87868C8.63338 7.31607 9.33967 7 10.0761 7V7Z" fill="#454444"/>
</svg>
